<mxfile host="app.diagrams.net" modified="2022-02-16T10:01:16.809Z" agent="5.0 (Windows NT 10.0; Win64; x64) AppleWebKit/537.36 (KHTML, like Gecko) Chrome/98.0.4758.82 Safari/537.36" etag="CUIVVF0AlartheG-uTi9" version="16.5.6" type="github">
  <diagram id="BOuJ2WHmXwjsNoas4kPV" name="Page-1">
    <mxGraphModel dx="1185" dy="635" grid="1" gridSize="10" guides="1" tooltips="1" connect="1" arrows="1" fold="1" page="1" pageScale="1" pageWidth="827" pageHeight="1169" background="#FFFFFF" math="0" shadow="0">
      <root>
        <mxCell id="0" />
        <mxCell id="1" parent="0" />
        <mxCell id="m2kR9QlXFFjrk26aGhA3-50" value="" style="edgeStyle=orthogonalEdgeStyle;rounded=0;orthogonalLoop=1;jettySize=auto;html=1;fontSize=12;fontColor=#000000;entryX=0;entryY=0.5;entryDx=0;entryDy=0;" parent="1" source="m2kR9QlXFFjrk26aGhA3-11" target="m2kR9QlXFFjrk26aGhA3-28" edge="1">
          <mxGeometry relative="1" as="geometry">
            <mxPoint x="350" y="150" as="targetPoint" />
          </mxGeometry>
        </mxCell>
        <mxCell id="m2kR9QlXFFjrk26aGhA3-11" value="&lt;h1&gt;Camera&lt;/h1&gt;&lt;p&gt;resolution: 1920x1088&lt;/p&gt;&lt;p&gt;format: YUV(NV12)&lt;/p&gt;" style="text;html=1;spacing=5;spacingTop=-20;whiteSpace=wrap;overflow=hidden;rounded=0;strokeColor=default;" parent="1" vertex="1">
          <mxGeometry x="40" y="80" width="140" height="100" as="geometry" />
        </mxCell>
        <mxCell id="m2kR9QlXFFjrk26aGhA3-12" value="AdasIO" style="swimlane;fontStyle=0;childLayout=stackLayout;horizontal=1;startSize=30;horizontalStack=0;resizeParent=1;resizeParentMax=0;resizeLast=0;collapsible=1;marginBottom=0;strokeColor=default;fillColor=none;" parent="1" vertex="1">
          <mxGeometry x="250" y="660" width="140" height="240" as="geometry" />
        </mxCell>
        <mxCell id="m2kR9QlXFFjrk26aGhA3-25" value="_switch" style="text;strokeColor=none;fillColor=none;align=left;verticalAlign=middle;spacingLeft=4;spacingRight=4;overflow=hidden;points=[[0,0.5],[1,0.5]];portConstraint=eastwest;rotatable=0;" parent="m2kR9QlXFFjrk26aGhA3-12" vertex="1">
          <mxGeometry y="30" width="140" height="30" as="geometry" />
        </mxCell>
        <mxCell id="m2kR9QlXFFjrk26aGhA3-14" value="gps_speed" style="text;strokeColor=none;fillColor=none;align=left;verticalAlign=middle;spacingLeft=4;spacingRight=4;overflow=hidden;points=[[0,0.5],[1,0.5]];portConstraint=eastwest;rotatable=0;" parent="m2kR9QlXFFjrk26aGhA3-12" vertex="1">
          <mxGeometry y="60" width="140" height="30" as="geometry" />
        </mxCell>
        <mxCell id="m2kR9QlXFFjrk26aGhA3-20" value="operating_speed" style="text;strokeColor=none;fillColor=none;align=left;verticalAlign=middle;spacingLeft=4;spacingRight=4;overflow=hidden;points=[[0,0.5],[1,0.5]];portConstraint=eastwest;rotatable=0;" parent="m2kR9QlXFFjrk26aGhA3-12" vertex="1">
          <mxGeometry y="90" width="140" height="30" as="geometry" />
        </mxCell>
        <mxCell id="m2kR9QlXFFjrk26aGhA3-21" value="car_type" style="text;strokeColor=none;fillColor=none;align=left;verticalAlign=middle;spacingLeft=4;spacingRight=4;overflow=hidden;points=[[0,0.5],[1,0.5]];portConstraint=eastwest;rotatable=0;" parent="m2kR9QlXFFjrk26aGhA3-12" vertex="1">
          <mxGeometry y="120" width="140" height="30" as="geometry" />
        </mxCell>
        <mxCell id="m2kR9QlXFFjrk26aGhA3-22" value="bonnet_y_pixel" style="text;strokeColor=none;fillColor=none;align=left;verticalAlign=middle;spacingLeft=4;spacingRight=4;overflow=hidden;points=[[0,0.5],[1,0.5]];portConstraint=eastwest;rotatable=0;" parent="m2kR9QlXFFjrk26aGhA3-12" vertex="1">
          <mxGeometry y="150" width="140" height="30" as="geometry" />
        </mxCell>
        <mxCell id="m2kR9QlXFFjrk26aGhA3-23" value="trunk_y_pixel" style="text;strokeColor=none;fillColor=none;align=left;verticalAlign=middle;spacingLeft=4;spacingRight=4;overflow=hidden;points=[[0,0.5],[1,0.5]];portConstraint=eastwest;rotatable=0;" parent="m2kR9QlXFFjrk26aGhA3-12" vertex="1">
          <mxGeometry y="180" width="140" height="30" as="geometry" />
        </mxCell>
        <mxCell id="m2kR9QlXFFjrk26aGhA3-15" value="freeze_count" style="text;strokeColor=none;fillColor=none;align=left;verticalAlign=middle;spacingLeft=4;spacingRight=4;overflow=hidden;points=[[0,0.5],[1,0.5]];portConstraint=eastwest;rotatable=0;" parent="m2kR9QlXFFjrk26aGhA3-12" vertex="1">
          <mxGeometry y="210" width="140" height="30" as="geometry" />
        </mxCell>
        <mxCell id="m2kR9QlXFFjrk26aGhA3-81" value="" style="edgeStyle=orthogonalEdgeStyle;rounded=0;orthogonalLoop=1;jettySize=auto;html=1;fontSize=12;fontColor=#000000;entryX=0.5;entryY=0;entryDx=0;entryDy=0;" parent="1" source="m2kR9QlXFFjrk26aGhA3-28" target="m2kR9QlXFFjrk26aGhA3-58" edge="1">
          <mxGeometry relative="1" as="geometry" />
        </mxCell>
        <mxCell id="m2kR9QlXFFjrk26aGhA3-28" value="FsCoverterToRGB888" style="swimlane;fontColor=#000000;strokeColor=default;fillColor=none;" parent="1" vertex="1">
          <mxGeometry x="280" y="80" width="160" height="100" as="geometry">
            <mxRectangle x="350" y="80" width="160" height="23" as="alternateBounds" />
          </mxGeometry>
        </mxCell>
        <mxCell id="m2kR9QlXFFjrk26aGhA3-33" value="&lt;font style=&quot;font-size: 12px;&quot;&gt;resolution: 1920x1088&lt;/font&gt;" style="text;html=1;align=center;verticalAlign=middle;resizable=0;points=[];autosize=1;strokeColor=none;fillColor=none;fontSize=12;fontColor=#000000;" parent="m2kR9QlXFFjrk26aGhA3-28" vertex="1">
          <mxGeometry x="10" y="40" width="130" height="20" as="geometry" />
        </mxCell>
        <mxCell id="m2kR9QlXFFjrk26aGhA3-34" value="&lt;font style=&quot;font-size: 12px;&quot;&gt;format: RGB888&lt;/font&gt;" style="text;html=1;align=center;verticalAlign=middle;resizable=0;points=[];autosize=1;strokeColor=none;fillColor=none;fontSize=12;fontColor=#000000;" parent="m2kR9QlXFFjrk26aGhA3-28" vertex="1">
          <mxGeometry x="10" y="68" width="100" height="20" as="geometry" />
        </mxCell>
        <mxCell id="m2kR9QlXFFjrk26aGhA3-49" value="FCWS FlowChart&lt;br&gt;&lt;br&gt;Made by. Kim ji eun" style="text;html=1;strokeColor=none;fillColor=none;align=center;verticalAlign=middle;whiteSpace=wrap;rounded=0;fontSize=12;fontColor=#000000;fontStyle=1" parent="1" vertex="1">
          <mxGeometry y="10" width="140" height="30" as="geometry" />
        </mxCell>
        <mxCell id="m2kR9QlXFFjrk26aGhA3-58" value="FSNet" style="swimlane;startSize=20;horizontal=1;containerType=tree;fontSize=12;fontColor=#000000;strokeColor=default;fillColor=none;" parent="1" vertex="1">
          <mxGeometry x="215" y="250" width="290" height="320" as="geometry" />
        </mxCell>
        <mxCell id="m2kR9QlXFFjrk26aGhA3-79" value="Bbox info&#xa;(cx, cy, w, h etc)" style="text;strokeColor=none;fillColor=none;spacingLeft=4;spacingRight=4;overflow=hidden;rotatable=0;points=[[0,0.5],[1,0.5]];portConstraint=eastwest;fontSize=12;fontColor=#000000;" parent="m2kR9QlXFFjrk26aGhA3-58" vertex="1">
          <mxGeometry x="190" y="142.5" width="100" height="35" as="geometry" />
        </mxCell>
        <mxCell id="m2kR9QlXFFjrk26aGhA3-80" value="&#xa;&#xa;&lt;b style=&quot;color: rgb(0, 0, 0); font-family: helvetica; font-size: 12px; font-style: normal; letter-spacing: normal; text-indent: 0px; text-transform: none; word-spacing: 0px; background-color: rgb(248, 249, 250); text-align: left;&quot;&gt;fs_tracker_init&lt;/b&gt;&#xa;&#xa;" style="shape=parallelogram;perimeter=parallelogramPerimeter;whiteSpace=wrap;html=1;fixedSize=1;fontSize=12;fontColor=#000000;strokeColor=default;fillColor=none;" parent="m2kR9QlXFFjrk26aGhA3-58" vertex="1">
          <mxGeometry x="14" y="30" width="186" height="60" as="geometry" />
        </mxCell>
        <mxCell id="m2kR9QlXFFjrk26aGhA3-82" value="" style="edgeStyle=orthogonalEdgeStyle;rounded=0;orthogonalLoop=1;jettySize=auto;html=1;" parent="m2kR9QlXFFjrk26aGhA3-58" source="m2kR9QlXFFjrk26aGhA3-80" target="m2kR9QlXFFjrk26aGhA3-88" edge="1">
          <mxGeometry relative="1" as="geometry">
            <Array as="points">
              <mxPoint x="102" y="100" />
              <mxPoint x="102" y="100" />
            </Array>
          </mxGeometry>
        </mxCell>
        <mxCell id="m2kR9QlXFFjrk26aGhA3-83" value="&lt;b&gt;FsDarknetPostProcess&lt;/b&gt;" style="shape=parallelogram;perimeter=parallelogramPerimeter;whiteSpace=wrap;html=1;fixedSize=1;fontSize=12;fontColor=#000000;strokeColor=default;fillColor=none;" parent="m2kR9QlXFFjrk26aGhA3-58" vertex="1">
          <mxGeometry x="14" y="230" width="176" height="60" as="geometry" />
        </mxCell>
        <mxCell id="m2kR9QlXFFjrk26aGhA3-87" value="" style="edgeStyle=orthogonalEdgeStyle;rounded=0;orthogonalLoop=1;jettySize=auto;html=1;" parent="m2kR9QlXFFjrk26aGhA3-58" source="m2kR9QlXFFjrk26aGhA3-88" target="m2kR9QlXFFjrk26aGhA3-83" edge="1">
          <mxGeometry relative="1" as="geometry">
            <mxPoint x="392.0000000000002" y="310" as="sourcePoint" />
          </mxGeometry>
        </mxCell>
        <mxCell id="m2kR9QlXFFjrk26aGhA3-88" value="&#xa;&#xa;&lt;b style=&quot;color: rgb(0, 0, 0); font-family: helvetica; font-size: 12px; font-style: normal; letter-spacing: normal; text-indent: 0px; text-transform: none; word-spacing: 0px; background-color: rgb(248, 249, 250); text-align: left;&quot;&gt;fs_tracker_init&lt;/b&gt;&#xa;&#xa;" style="shape=parallelogram;perimeter=parallelogramPerimeter;whiteSpace=wrap;html=1;fixedSize=1;fontSize=12;fontColor=#000000;strokeColor=default;fillColor=none;" parent="m2kR9QlXFFjrk26aGhA3-58" vertex="1">
          <mxGeometry x="14" y="130" width="176" height="60" as="geometry" />
        </mxCell>
        <mxCell id="m2kR9QlXFFjrk26aGhA3-90" value="crop Roi" style="text;strokeColor=none;fillColor=none;spacingLeft=4;spacingRight=4;overflow=hidden;rotatable=0;points=[[0,0.5],[1,0.5]];portConstraint=eastwest;fontSize=12;fontColor=#000000;" parent="m2kR9QlXFFjrk26aGhA3-58" vertex="1">
          <mxGeometry x="190" y="242.5" width="100" height="35" as="geometry" />
        </mxCell>
        <mxCell id="m2kR9QlXFFjrk26aGhA3-91" value="__FsAdasFrontProcess" style="text;whiteSpace=wrap;html=1;fontSize=9;fontColor=#000000;" parent="1" vertex="1">
          <mxGeometry x="270" y="584.5" width="130" height="30" as="geometry" />
        </mxCell>
        <mxCell id="m2kR9QlXFFjrk26aGhA3-92" value="__FsFcwsProcessFromLdwsParams" style="text;whiteSpace=wrap;html=1;fontSize=9;fontColor=#000000;" parent="1" vertex="1">
          <mxGeometry x="240" y="940" width="190" height="30" as="geometry" />
        </mxCell>
        <mxCell id="m2kR9QlXFFjrk26aGhA3-93" value="GettingStableLineForFcws" style="text;whiteSpace=wrap;html=1;fontSize=9;fontColor=#000000;" parent="1" vertex="1">
          <mxGeometry x="250" y="970" width="140" height="30" as="geometry" />
        </mxCell>
        <mxCell id="m2kR9QlXFFjrk26aGhA3-94" value="FcwsVanishingPoint" style="text;whiteSpace=wrap;html=1;fontSize=9;fontColor=#000000;" parent="1" vertex="1">
          <mxGeometry x="260" y="1000" width="110" height="30" as="geometry" />
        </mxCell>
        <mxCell id="m2kR9QlXFFjrk26aGhA3-95" value="__FsFcwsEngine" style="text;whiteSpace=wrap;html=1;fontSize=9;fontColor=#000000;container=1;fontStyle=1" parent="1" vertex="1">
          <mxGeometry x="260" y="1080" width="100" height="30" as="geometry" />
        </mxCell>
        <mxCell id="m2kR9QlXFFjrk26aGhA3-96" value="fcws_params-&gt;forward.tracker" style="text;whiteSpace=wrap;html=1;fontSize=9;fontColor=#000000;" parent="1" vertex="1">
          <mxGeometry x="240" y="1120" width="160" height="30" as="geometry" />
        </mxCell>
        <mxCell id="m2kR9QlXFFjrk26aGhA3-97" value="초기화" style="text;strokeColor=none;fillColor=none;spacingLeft=4;spacingRight=4;overflow=hidden;rotatable=0;points=[[0,0.5],[1,0.5]];portConstraint=eastwest;fontSize=12;fontColor=#000000;" parent="1" vertex="1">
          <mxGeometry x="420" y="1120" width="80" height="30" as="geometry" />
        </mxCell>
        <mxCell id="m2kR9QlXFFjrk26aGhA3-98" value="SetFcwsCustomization" style="text;whiteSpace=wrap;html=1;fontSize=9;fontColor=#000000;" parent="1" vertex="1">
          <mxGeometry x="250" y="1190" width="130" height="30" as="geometry" />
        </mxCell>
        <mxCell id="m2kR9QlXFFjrk26aGhA3-99" value="DistanceFormula" style="text;whiteSpace=wrap;html=1;fontSize=9;fontColor=#000000;" parent="1" vertex="1">
          <mxGeometry x="260" y="1220" width="100" height="30" as="geometry" />
        </mxCell>
        <mxCell id="m2kR9QlXFFjrk26aGhA3-100" value="FcwsVehicleTrackingCore" style="text;whiteSpace=wrap;html=1;fontSize=9;fontColor=#000000;" parent="1" vertex="1">
          <mxGeometry x="240" y="1280" width="140" height="30" as="geometry" />
        </mxCell>
        <mxCell id="Mp73TvByTAtN30GjEILg-12" value="" style="edgeStyle=orthogonalEdgeStyle;rounded=0;orthogonalLoop=1;jettySize=auto;html=1;entryX=0.5;entryY=0;entryDx=0;entryDy=0;" edge="1" parent="1" source="m2kR9QlXFFjrk26aGhA3-101" target="m2kR9QlXFFjrk26aGhA3-105">
          <mxGeometry relative="1" as="geometry" />
        </mxCell>
        <mxCell id="m2kR9QlXFFjrk26aGhA3-101" value="DetectVehicleCandidate" style="text;whiteSpace=wrap;html=1;fontSize=9;fontColor=#000000;" parent="1" vertex="1">
          <mxGeometry x="240" y="1310" width="130" height="30" as="geometry" />
        </mxCell>
        <mxCell id="m2kR9QlXFFjrk26aGhA3-102" value="Classify Forward Vehicle" style="text;strokeColor=none;fillColor=none;spacingLeft=4;spacingRight=4;overflow=hidden;rotatable=0;points=[[0,0.5],[1,0.5]];portConstraint=eastwest;fontSize=12;fontColor=#000000;" parent="1" vertex="1">
          <mxGeometry x="414" y="1310" width="230" height="30" as="geometry" />
        </mxCell>
        <mxCell id="m2kR9QlXFFjrk26aGhA3-103" value="CalculateIou" style="text;whiteSpace=wrap;html=1;fontSize=9;fontColor=#000000;" parent="1" vertex="1">
          <mxGeometry x="340" y="1440" width="80" height="30" as="geometry" />
        </mxCell>
        <mxCell id="m2kR9QlXFFjrk26aGhA3-105" value="Relationship" style="shape=rhombus;perimeter=rhombusPerimeter;whiteSpace=wrap;html=1;align=center;fontSize=9;fontColor=#000000;strokeColor=default;fillColor=none;" parent="1" vertex="1">
          <mxGeometry x="170" y="1370" width="120" height="60" as="geometry" />
        </mxCell>
        <mxCell id="m2kR9QlXFFjrk26aGhA3-106" value="FcwsCalculateDistance" style="text;whiteSpace=wrap;html=1;fontSize=9;fontColor=#000000;" parent="1" vertex="1">
          <mxGeometry x="240" y="1540" width="130" height="30" as="geometry" />
        </mxCell>
        <mxCell id="m2kR9QlXFFjrk26aGhA3-107" value="Relationship" style="shape=rhombus;perimeter=rhombusPerimeter;whiteSpace=wrap;html=1;align=center;fontSize=9;fontColor=#000000;strokeColor=default;fillColor=none;" parent="1" vertex="1">
          <mxGeometry x="240" y="1570" width="120" height="60" as="geometry" />
        </mxCell>
        <mxCell id="m2kR9QlXFFjrk26aGhA3-108" value="DistanceFormula" style="text;whiteSpace=wrap;html=1;fontSize=9;fontColor=#000000;" parent="1" vertex="1">
          <mxGeometry x="250" y="1640" width="100" height="30" as="geometry" />
        </mxCell>
        <mxCell id="m2kR9QlXFFjrk26aGhA3-109" value="FcwsCalculateTTC" style="text;whiteSpace=wrap;html=1;fontSize=9;fontColor=#000000;" parent="1" vertex="1">
          <mxGeometry x="250" y="1724" width="110" height="30" as="geometry" />
        </mxCell>
        <mxCell id="m2kR9QlXFFjrk26aGhA3-110" value="Relationship" style="shape=rhombus;perimeter=rhombusPerimeter;whiteSpace=wrap;html=1;align=center;fontSize=9;fontColor=#000000;strokeColor=default;fillColor=none;" parent="1" vertex="1">
          <mxGeometry x="230" y="1750" width="120" height="60" as="geometry" />
        </mxCell>
        <mxCell id="m2kR9QlXFFjrk26aGhA3-111" value="__FsFcwsOutputController" style="text;whiteSpace=wrap;html=1;fontSize=9;fontColor=#000000;" parent="1" vertex="1">
          <mxGeometry x="220" y="1870" width="140" height="30" as="geometry" />
        </mxCell>
        <mxCell id="m2kR9QlXFFjrk26aGhA3-112" value="wiws_warning" style="shape=rhombus;perimeter=rhombusPerimeter;whiteSpace=wrap;html=1;align=center;fontSize=9;fontColor=#000000;strokeColor=default;fillColor=none;" parent="1" vertex="1">
          <mxGeometry x="220" y="1900" width="120" height="60" as="geometry" />
        </mxCell>
        <mxCell id="m2kR9QlXFFjrk26aGhA3-113" value="dangerous" style="shape=rhombus;perimeter=rhombusPerimeter;whiteSpace=wrap;html=1;align=center;fontSize=9;fontColor=#000000;strokeColor=default;fillColor=none;" parent="1" vertex="1">
          <mxGeometry x="220" y="1980" width="120" height="60" as="geometry" />
        </mxCell>
        <mxCell id="m2kR9QlXFFjrk26aGhA3-114" value="FREEZE_WARNING_SIGN" style="text;whiteSpace=wrap;html=1;fontSize=9;fontColor=#000000;" parent="1" vertex="1">
          <mxGeometry x="355" y="1995" width="150" height="30" as="geometry" />
        </mxCell>
        <mxCell id="m2kR9QlXFFjrk26aGhA3-115" value="warning_holding_count" style="text;whiteSpace=wrap;html=1;fontSize=9;fontColor=#000000;" parent="1" vertex="1">
          <mxGeometry x="355" y="2030" width="130" height="30" as="geometry" />
        </mxCell>
        <mxCell id="Mp73TvByTAtN30GjEILg-1" value="DecisionLightCondition" style="text;whiteSpace=wrap;html=1;" vertex="1" parent="1">
          <mxGeometry x="260" y="610" width="150" height="30" as="geometry" />
        </mxCell>
        <mxCell id="Mp73TvByTAtN30GjEILg-2" value="BFS" style="text;whiteSpace=wrap;html=1;" vertex="1" parent="1">
          <mxGeometry x="420" y="614.5" width="50" height="30" as="geometry" />
        </mxCell>
        <mxCell id="Mp73TvByTAtN30GjEILg-4" value="FSNet" style="rounded=1;whiteSpace=wrap;html=1;" vertex="1" parent="1">
          <mxGeometry x="590" y="280" width="120" height="60" as="geometry" />
        </mxCell>
        <mxCell id="Mp73TvByTAtN30GjEILg-5" value="" style="shape=parallelogram;perimeter=parallelogramPerimeter;whiteSpace=wrap;html=1;fixedSize=1;" vertex="1" parent="1">
          <mxGeometry x="30" y="200" width="120" height="60" as="geometry" />
        </mxCell>
        <mxCell id="Mp73TvByTAtN30GjEILg-6" value="" style="shape=parallelogram;perimeter=parallelogramPerimeter;whiteSpace=wrap;html=1;fixedSize=1;" vertex="1" parent="1">
          <mxGeometry x="524" y="40" width="256" height="170" as="geometry" />
        </mxCell>
        <mxCell id="Mp73TvByTAtN30GjEILg-7" value="FsCoverterToRGB888" style="swimlane;fontColor=#000000;strokeColor=default;fillColor=none;" vertex="1" parent="1">
          <mxGeometry x="572" y="75" width="160" height="100" as="geometry">
            <mxRectangle x="350" y="80" width="160" height="23" as="alternateBounds" />
          </mxGeometry>
        </mxCell>
        <mxCell id="Mp73TvByTAtN30GjEILg-8" value="&lt;font style=&quot;font-size: 12px;&quot;&gt;resolution: 1920x1088&lt;/font&gt;" style="text;html=1;align=center;verticalAlign=middle;resizable=0;points=[];autosize=1;strokeColor=none;fillColor=none;fontSize=12;fontColor=#000000;" vertex="1" parent="Mp73TvByTAtN30GjEILg-7">
          <mxGeometry x="10" y="40" width="130" height="20" as="geometry" />
        </mxCell>
        <mxCell id="Mp73TvByTAtN30GjEILg-9" value="&lt;font style=&quot;font-size: 12px;&quot;&gt;format: RGB888&lt;/font&gt;" style="text;html=1;align=center;verticalAlign=middle;resizable=0;points=[];autosize=1;strokeColor=none;fillColor=none;fontSize=12;fontColor=#000000;" vertex="1" parent="Mp73TvByTAtN30GjEILg-7">
          <mxGeometry x="10" y="68" width="100" height="20" as="geometry" />
        </mxCell>
        <mxCell id="Mp73TvByTAtN30GjEILg-10" value="" style="shape=document;whiteSpace=wrap;html=1;boundedLbl=1;" vertex="1" parent="1">
          <mxGeometry x="215" y="2130" width="120" height="80" as="geometry" />
        </mxCell>
        <mxCell id="Mp73TvByTAtN30GjEILg-3" value="warning" style="text;whiteSpace=wrap;html=1;" vertex="1" parent="1">
          <mxGeometry x="245" y="2150" width="70" height="30" as="geometry" />
        </mxCell>
        <mxCell id="Mp73TvByTAtN30GjEILg-11" value="Relationship" style="shape=rhombus;perimeter=rhombusPerimeter;whiteSpace=wrap;html=1;align=center;fontSize=9;fontColor=#000000;strokeColor=default;fillColor=none;" vertex="1" parent="1">
          <mxGeometry x="310" y="1370" width="120" height="60" as="geometry" />
        </mxCell>
        <mxCell id="Mp73TvByTAtN30GjEILg-13" value="" style="edgeStyle=orthogonalEdgeStyle;rounded=0;orthogonalLoop=1;jettySize=auto;html=1;entryX=0.5;entryY=0;entryDx=0;entryDy=0;exitX=0.5;exitY=1;exitDx=0;exitDy=0;" edge="1" parent="1" source="m2kR9QlXFFjrk26aGhA3-101" target="Mp73TvByTAtN30GjEILg-11">
          <mxGeometry relative="1" as="geometry">
            <mxPoint x="315" y="1350" as="sourcePoint" />
            <mxPoint x="240" y="1380" as="targetPoint" />
          </mxGeometry>
        </mxCell>
        <mxCell id="Mp73TvByTAtN30GjEILg-15" value="y_value" style="text;whiteSpace=wrap;html=1;" vertex="1" parent="1">
          <mxGeometry x="265" y="1480" width="70" height="30" as="geometry" />
        </mxCell>
        <mxCell id="Mp73TvByTAtN30GjEILg-16" value="tracked_car-&gt;now_box_info.y + tracked_car-&gt;now_box_info.h;" style="text;whiteSpace=wrap;html=1;" vertex="1" parent="1">
          <mxGeometry x="370" y="1480" width="360" height="30" as="geometry" />
        </mxCell>
      </root>
    </mxGraphModel>
  </diagram>
</mxfile>
